<svg width="86" height="68" viewBox="0 0 86 68" fill="none" xmlns="http://www.w3.org/2000/svg">
<g clip-path="url(#clip0_0_387)">
<path d="M85.1339 35.75C85.1409 34.6847 84.6094 33.7218 83.7103 33.1732L83.1674 32.8419C84.0873 30.2378 85.9601 21.3157 73.9978 10.4461C67.5819 4.61522 57.8215 1.10508 46.5173 0.562174C36.2941 0.0670679 25.6995 2.01335 17.4348 5.88997C7.11221 10.7318 0.439186 18.6728 0.02098 26.6139C-0.24297 31.6298 1.86063 39.0781 13.3808 46.0869C20.0938 50.1707 27.9997 51.7016 35.508 51.7016C40.4773 51.7016 45.2696 51.0312 49.4241 49.9863L49.4219 50.8514L44.3806 53.7742C42.9133 54.6358 41.7674 56.6538 41.773 58.369C41.7754 59.3398 42.1559 60.1184 42.814 60.5032C43.1042 60.6726 43.431 60.757 43.7784 60.757C44.2241 60.757 44.7005 60.6181 45.1679 60.3426L49.583 57.7829C49.7042 58.1345 49.8847 58.46 50.1189 58.7469C49.1945 59.7565 48.5627 61.1951 48.5661 62.4676C48.5683 63.4384 48.9488 64.2158 49.607 64.6017C49.8972 64.7724 50.224 64.8556 50.5714 64.8556C51.017 64.8556 51.4924 64.7167 51.9608 64.4423L55.6264 62.3173L63.417 67.0648C63.9082 67.3652 64.4511 67.5154 64.995 67.5154C65.5115 67.5154 66.029 67.3799 66.5043 67.1069C66.6415 67.0283 66.7683 66.9383 66.8894 66.8427L82.8076 56.1997C84.2496 55.3267 85.1397 53.7298 85.1351 52.0225L85.0848 36.2634C85.1123 36.095 85.1329 35.9254 85.1339 35.75ZM66.7729 45.1969C66.5169 44.9374 66.2325 44.704 65.9159 44.5118L55.0768 37.9081L69.0868 29.4855C70.1939 28.8265 71.5663 28.8333 72.6666 29.506L82.3791 35.4313C82.5173 35.5155 82.5458 35.6408 82.5448 35.7318C82.5448 35.8228 82.5139 35.9469 82.3779 36.0277L66.7729 45.1969ZM14.7096 43.8254C6.46776 38.8117 2.2834 32.908 2.60678 26.7539C2.97242 19.7905 9.0707 12.7134 18.5192 8.28129C34.195 0.929808 59.5343 0.834199 72.2735 12.4095C82.4214 21.631 81.6089 28.9301 80.8936 31.4534L73.999 27.2467C72.8449 26.5421 71.5194 26.2656 70.2259 26.4034C67.8504 19.0997 59.3434 11.3942 45.3233 10.2503C40.4179 9.84969 35.1754 10.2959 29.7422 11.5752C25.4881 12.5768 23.1651 13.7627 20.5884 15.4712L22.0031 17.6769C24.3923 16.0926 26.4263 15.0592 30.326 14.1406C35.4988 12.9228 40.4739 12.4971 45.1164 12.8761C57.9483 13.9221 65.6657 20.7591 67.7636 27.2194L51.2009 37.1762C51.137 37.2069 51.0731 37.2342 51.0102 37.2695C50.0366 37.8283 49.4538 38.8414 49.4504 39.9784L49.431 47.2662C39.4764 49.9113 25.4184 50.3393 14.7096 43.8254ZM44.3932 58.9711C44.0606 59.1658 43.7521 59.2272 43.5876 59.1317C43.4264 59.0371 43.326 58.7424 43.3248 58.3622C43.3214 57.2001 44.16 55.7239 45.1518 55.1423L54.6574 49.6323L54.6666 53.0151L44.3932 58.9711ZM51.1861 63.072C50.8537 63.2666 50.544 63.328 50.3805 63.2325C50.2195 63.138 50.1189 62.8432 50.1177 62.4642C50.1143 61.3022 50.9531 59.8259 51.9449 59.2443L61.4505 53.7332L61.4596 57.1158L51.1861 63.072ZM58.2077 60.8207L62.6239 58.2609C62.8663 58.1198 63.017 57.8568 63.0159 57.5724L63.0021 52.3731C63.0011 52.092 62.8536 51.8325 62.6148 51.6914C62.376 51.5502 62.0812 51.5491 61.8402 51.6891L52.2991 57.2206L52.227 57.1773C52.0831 57.0897 51.994 56.9292 51.994 56.754V56.3863L55.831 54.1623C56.0732 54.0212 56.224 53.7582 56.2229 53.4738L56.2092 48.2745C56.208 47.9934 56.0606 47.7339 55.8218 47.5927C55.583 47.4516 55.2883 47.4506 55.0471 47.5905L52.0145 49.3479L52.0397 39.9886C52.0397 39.7416 52.1928 39.6176 52.2831 39.5652C52.3733 39.5129 52.5561 39.4446 52.7665 39.5721L64.5835 46.771C65.1617 47.1239 65.5195 47.7693 65.5183 48.4544L65.4736 64.3888C65.4736 64.5539 65.4051 64.6598 65.3332 64.7303L65.1675 64.8407C65.0681 64.8817 64.9173 64.909 64.747 64.8055L58.2077 60.8207ZM81.4672 53.9438L68.0687 62.9012L68.1086 48.4612C68.1098 48.1391 68.0687 47.8238 68.0046 47.5154L82.5025 38.9972L82.5436 52.0293C82.5458 52.8147 82.1333 53.5477 81.4672 53.9438Z" fill="#AAAAAA"/>
</g>
<defs>
<clipPath id="clip0_0_387">
<rect width="85.3333" height="68" fill="white"/>
</clipPath>
</defs>
</svg>
