<svg width="86" height="86" viewBox="0 0 86 86" fill="none" xmlns="http://www.w3.org/2000/svg">
<g clip-path="url(#clip0_0_380)">
<path d="M63.8055 35.0983L54.8481 35.0971L6.76643 35.0935C4.47267 35.0935 2.60607 33.1875 2.60607 30.8447C2.60607 28.5018 4.47267 26.5958 6.76763 26.5958L60.7783 26.5994V23.9406L6.76763 23.937C3.03801 23.937 0.00359013 27.0349 0.00239359 30.8435L0 78.4203C0 80.5238 1.67516 82.2349 3.7356 82.2349L63.8043 82.2397C65.8647 82.2397 67.5399 80.5286 67.5399 78.4263L67.5423 50.6989L67.5435 38.9118C67.5411 36.8094 65.8659 35.0983 63.8055 35.0983ZM64.9351 78.4263C64.9351 79.0629 64.4265 79.5822 63.8031 79.5822L3.7344 79.5774C3.111 79.5774 2.60248 79.0581 2.60248 78.4215L2.60487 36.2782C3.44484 36.9506 4.44156 37.4233 5.5304 37.6302V37.7511H6.76524L54.8469 37.7547L63.8043 37.7559C64.4289 37.7559 64.9363 38.2751 64.9363 38.9118L64.9351 50.6989V78.4263Z" fill="#AAAAAA"/>
<path d="M63.5756 29.5435H8.6759V31.1384H63.5756V29.5435Z" fill="#AAAAAA"/>
<path d="M78.8593 11.1655C70.6857 2.81846 57.6627 2.37813 48.9709 9.83497L49.8336 3.00632L47.2515 2.6665L45.7977 14.1808L57.0739 15.6645L57.4065 13.0285L50.3793 12.1036C58.0467 5.28453 69.7225 5.59444 77.0191 13.0453C84.6361 20.8252 84.6349 33.4822 77.0167 41.2609L78.8569 43.1406C87.4911 34.3257 87.4923 19.9816 78.8593 11.1655Z" fill="#AAAAAA"/>
</g>
<defs>
<clipPath id="clip0_0_380">
<rect width="85.3333" height="85.3333" fill="white"/>
</clipPath>
</defs>
</svg>
