<svg width="86" height="86" viewBox="0 0 86 86" fill="none" xmlns="http://www.w3.org/2000/svg">
<path d="M58.8521 37.2605L61.6057 42.1483L62.9625 41.3519L60.1825 36.4167L61.9523 36.8843L62.3441 35.3379L58.0147 34.1929L56.8907 38.6215L58.4055 39.0218L58.8521 37.2605Z" fill="#AAAAAA"/>
<path d="M52.5233 41.0339L55.2769 45.9216L56.6337 45.1254L53.8527 40.19L55.6224 40.6578L56.0153 39.1114L51.6848 37.9663L50.5619 42.3948L52.0767 42.7951L52.5233 41.0339Z" fill="#AAAAAA"/>
<path d="M55.5433 50.0135L66.5779 43.4169L65.7867 42.0391L54.7532 48.6345L55.5433 50.0135Z" fill="#AAAAAA"/>
<path d="M59.3505 57.9897L78.2352 46.3801L52.4601 2.6665L27.8451 17.7998L51.0517 57.1586C45.5192 58.6386 41.6343 64.0026 42.102 70.024C42.6013 76.454 47.8863 81.3492 54.0983 81.3492C54.4164 81.3492 54.7377 81.3366 55.0611 81.3102C61.6808 80.773 66.6392 74.837 66.1135 68.0784C65.7648 63.576 63.0681 59.8332 59.3505 57.9897ZM51.5711 6.32185L74.6556 45.472L56.0397 56.9164C55.3297 56.7984 54.6017 56.7425 53.8601 56.7584L31.4245 18.708L51.5711 6.32185ZM54.8547 78.6557C49.6655 79.0792 45.1137 75.1098 44.7017 69.8133C44.2899 64.5178 48.1749 59.8669 53.3608 59.4466C53.6157 59.4256 53.8707 59.415 54.1236 59.415C56.3631 59.415 58.5079 60.2198 60.2312 61.7209C62.1484 63.3906 63.3145 65.724 63.5137 68.289C63.9256 73.5845 60.0416 78.2342 54.8547 78.6557Z" fill="#AAAAAA"/>
<path d="M53.9044 66.436C52.4918 66.5508 51.4341 67.8171 51.5458 69.2592C51.6522 70.6307 52.7804 71.6758 54.1066 71.6758C54.1741 71.6758 54.2425 71.6736 54.311 71.6672C55.7237 71.5524 56.7813 70.2863 56.6696 68.8442C56.558 67.402 55.3118 66.318 53.9044 66.436ZM54.1878 70.0756C53.64 70.1251 53.1501 69.6974 53.106 69.1328C53.0617 68.5692 53.4757 68.074 54.0288 68.0288C54.055 68.0267 54.0825 68.0256 54.1088 68.0256C54.627 68.0256 55.0684 68.4343 55.1106 68.9716C55.1537 69.5352 54.7398 70.0303 54.1878 70.0756Z" fill="#AAAAAA"/>
<path d="M44.9579 58.0754L45.7943 57.3474L17.3584 8.46796C15.9563 6.0588 13.486 4.50712 10.7492 4.3154L4.17908 3.854L4 6.51072L10.5712 6.97212C12.4537 7.10379 14.1528 8.17196 15.1167 9.82898L42.4496 56.8113C38.9071 60.3381 37.0467 65.3366 37.4407 70.4014L40.0405 70.1908C39.6824 65.5978 41.5216 61.0692 44.9579 58.0754Z" fill="#AAAAAA"/>
<path d="M80.5981 50.5757L65.5111 59.7678L67.0248 61.9462L81.9339 52.8628L80.5981 50.5757Z" fill="#AAAAAA"/>
</svg>
