<svg width="468" height="36" viewBox="0 0 468 36" fill="none" xmlns="http://www.w3.org/2000/svg">
<g clip-path="url(#clip0_0_301)">
<path fill-rule="evenodd" clip-rule="evenodd" d="M14.9328 0.223143L18.6716 8.65296L28.0184 9.84305C28.412 9.94223 28.5103 10.3389 28.2152 10.6365L21.5248 16.8844L23.2958 26.1076C23.2958 26.5044 22.9023 26.8019 22.6071 26.6035L14.6378 22.0415L6.47155 26.6035C6.07799 26.8019 5.78283 26.5044 5.78283 26.1076L7.65219 17.0828L0.765074 10.6365C0.5683 10.3389 0.666687 9.94223 1.06024 9.84305L10.1119 8.85132L14.1458 0.223143C14.3426 -0.0743809 14.7362 -0.0743809 14.9328 0.223143Z" fill="#FFF4CB"/>
</g>
<g clip-path="url(#clip1_0_301)">
<path fill-rule="evenodd" clip-rule="evenodd" d="M46.9328 0.223143L50.6716 8.65296L60.0184 9.84305C60.412 9.94223 60.5103 10.3389 60.2152 10.6365L53.5248 16.8844L55.2958 26.1076C55.2958 26.5044 54.9023 26.8019 54.6071 26.6035L46.6378 22.0415L38.4716 26.6035C38.078 26.8019 37.7828 26.5044 37.7828 26.1076L39.6522 17.0828L32.7651 10.6365C32.5683 10.3389 32.6667 9.94223 33.0602 9.84305L42.1119 8.85132L46.1458 0.223143C46.3426 -0.0743809 46.7362 -0.0743809 46.9328 0.223143Z" fill="#FFF4CB"/>
</g>
<g clip-path="url(#clip2_0_301)">
<path fill-rule="evenodd" clip-rule="evenodd" d="M78.9328 0.223143L82.6716 8.65296L92.0184 9.84305C92.412 9.94223 92.5103 10.3389 92.2152 10.6365L85.5248 16.8844L87.2958 26.1076C87.2958 26.5044 86.9023 26.8019 86.6071 26.6035L78.6378 22.0415L70.4716 26.6035C70.078 26.8019 69.7828 26.5044 69.7828 26.1076L71.6522 17.0828L64.7651 10.6365C64.5683 10.3389 64.6667 9.94223 65.0602 9.84305L74.1119 8.85132L78.1458 0.223143C78.3426 -0.0743809 78.7362 -0.0743809 78.9328 0.223143Z" fill="#FFF4CB"/>
</g>
<g clip-path="url(#clip3_0_301)">
<path fill-rule="evenodd" clip-rule="evenodd" d="M110.933 0.223143L114.672 8.65296L124.018 9.84305C124.412 9.94223 124.51 10.3389 124.215 10.6365L117.525 16.8844L119.296 26.1076C119.296 26.5044 118.902 26.8019 118.607 26.6035L110.638 22.0415L102.472 26.6035C102.078 26.8019 101.783 26.5044 101.783 26.1076L103.652 17.0828L96.7651 10.6365C96.5683 10.3389 96.6667 9.94223 97.0602 9.84305L106.112 8.85132L110.146 0.223143C110.343 -0.0743809 110.736 -0.0743809 110.933 0.223143Z" fill="#FFF4CB"/>
</g>
<g clip-path="url(#clip4_0_301)">
<path fill-rule="evenodd" clip-rule="evenodd" d="M142.933 0.223143L146.672 8.65296L156.018 9.84305C156.412 9.94223 156.51 10.3389 156.215 10.6365L149.525 16.8844L151.296 26.1076C151.296 26.5044 150.902 26.8019 150.607 26.6035L142.638 22.0415L134.472 26.6035C134.078 26.8019 133.783 26.5044 133.783 26.1076L135.652 17.0828L128.765 10.6365C128.568 10.3389 128.667 9.94223 129.06 9.84305L138.112 8.85132L142.146 0.223143C142.343 -0.0743809 142.736 -0.0743809 142.933 0.223143Z" fill="#FFF4CB"/>
</g>
<defs>
<clipPath id="clip0_0_301">
<rect width="28" height="26.6667" fill="white" transform="translate(0.666687)"/>
</clipPath>
<clipPath id="clip1_0_301">
<rect width="28" height="26.6667" fill="white" transform="translate(32.6667)"/>
</clipPath>
<clipPath id="clip2_0_301">
<rect width="28" height="26.6667" fill="white" transform="translate(64.6667)"/>
</clipPath>
<clipPath id="clip3_0_301">
<rect width="28" height="26.6667" fill="white" transform="translate(96.6667)"/>
</clipPath>
<clipPath id="clip4_0_301">
<rect width="28" height="26.6667" fill="white" transform="translate(128.667)"/>
</clipPath>
</defs>
</svg>
